<svg id="Capa_1" enable-background="new 0 0 511.958 511.958" height="512" viewBox="0 0 511.958 511.958" width="512" xmlns="http://www.w3.org/2000/svg"><g><g><path d="m467.849 238.191c0-12.125-5.373-23.012-13.854-30.428 8.481-7.416 13.854-18.304 13.854-30.429 0-22.292-18.136-40.428-40.429-40.428h-16.188v-98.625c0-21.108-17.173-38.281-38.281-38.281h-168.391c-21.108 0-38.28 17.173-38.28 38.281v43.179c-9.165-9.954-21.185-16.773-35.478-19.593-12.944-2.536-25.303 7.757-25.303 20.903v24.094c0 5.523 4.477 10 10 10s10-4.477 10-10v-24.093c0-.747.68-1.427 1.444-1.279 24.631 4.859 39.336 26.417 39.336 57.669v245.297.002c0 21.108 17.172 38.28 38.28 38.28h93.15c-37.122 22.727-94.838 29.423-95.535 29.5-2.435.27-4.686 1.424-6.327 3.244l-35.9 39.819c-3.698 4.102-3.371 10.425.731 14.124 4.044 3.646 10.478 3.311 14.124-.731l33.411-37.059c17.458-2.368 88.115-13.9 121.473-48.898h43.265c15.446 0 28.775-9.201 34.82-22.405h19.649c22.292 0 40.429-18.136 40.429-40.428 0-12.125-5.373-23.012-13.854-30.428 8.481-7.416 13.854-18.304 13.854-30.429s-5.373-23.012-13.854-30.428c8.482-7.417 13.854-18.305 13.854-30.43zm-40.428-81.285c11.265 0 20.429 9.164 20.429 20.429 0 11.264-9.164 20.428-20.429 20.428h-16.188v-40.857zm-73.955 141.142c-5.523 0-10 4.477-10 10v23.39h-108.888v-23.39c0-5.523-4.477-10-10-10s-10 4.477-10 10v23.39h-28.298v-20.062c0-26.145 21.066-48.446 47.008-49.824h22.131c8.592 9.547 21.126 15.096 33.968 15.03 12.672-.079 24.983-5.628 33.47-15.03h21.126c26.072 1.19 47.249 23.505 47.249 49.837v20.048h-27.766v-23.39c0-5.522-4.477-9.999-10-9.999zm-110.21-154.211c.903-4.401 2.456-9.747 5.125-14.997 7.811-15.364 21.143-22.833 40.758-22.833 19.034 0 31.982 7.446 39.585 22.763 2.519 5.074 4.022 10.238 4.919 14.555-12.317-1.295-28.047-5.009-36.548-14.902-1.881-2.658-4.791-4.178-8.023-4.199-3.262.017-6.125 1.641-7.979 4.319-8.674 10.623-24.828 14.458-37.837 15.294zm5.386 19.617c14.473-1.505 29.074-6.187 40.622-15.257 11.269 8.446 25.246 12.839 39.078 14.657v10.972c-.806 20.091-17.41 37.171-37.506 38.394-21.886 1.31-41.326-16.549-42.195-38.402v-10.364zm34.444 68.585c7.484.665 15.078-.048 22.289-2.182l2.25 18.717c-4.802 5.175-11.631 8.062-18.683 8.011-6.86-.044-13.554-2.984-18.25-7.983l2.392-18.315c3.275.869 6.629 1.438 10.002 1.752zm24.497-212.039v2.211c0 10.331-8.405 18.736-18.736 18.736s-18.736-8.405-18.736-18.736v-2.211zm-121.303 18.281c0-10.08 8.201-18.281 18.28-18.281h45.551v2.211c0 21.359 17.377 38.736 38.736 38.736s38.736-17.377 38.736-38.736v-2.211h45.369c10.08 0 18.281 8.201 18.281 18.281v224.434c-12.024-12.374-28.481-20.399-46.615-21.153-.138-.006-.276-.009-.415-.009h-17.276l-2.564-21.327c2.057-1.559 4.036-3.247 5.908-5.086 11.099-10.902 17.516-25.38 18.067-40.767.004-.12.006-.239.006-.358v-10.711c3.859-1.386 6.625-5.067 6.625-9.403 0-.684-.091-16.946-7.971-33.29-7.611-15.786-23.828-34.604-57.858-34.604-34.654 0-51.191 18.773-58.963 34.521-8.082 16.377-8.175 32.686-8.175 33.372 0 4.328 2.757 8.036 6.642 9.42v10.684c0 .118.002.237.006.355.682 19.217 10.673 36.269 25.455 46.815l-2.661 20.377h-18.408c-.161 0-.322.004-.482.012-17.99.869-34.319 8.91-46.272 21.224v-224.506zm186.671 364.458h-168.391c-10.08 0-18.28-8.201-18.28-18.281v-33.02h204.953v33.02c-.001 10.08-8.202 18.281-18.282 18.281zm74.898-42.834c0 11.264-9.164 20.428-20.429 20.428h-16.188v-40.856h16.188c11.265 0 20.429 9.164 20.429 20.428zm0-60.857c0 11.265-9.164 20.429-20.429 20.429h-16.188v-40.857h16.188c11.265 0 20.429 9.164 20.429 20.428zm-36.617-40.428v-40.857h16.188c11.265 0 20.429 9.164 20.429 20.428 0 11.265-9.164 20.429-20.429 20.429z"/><path d="m115.516 184.833c-.007 0-.013 0-.021 0-5.513 0-9.988 4.464-10 9.98-.031 15.377-2.781 30.37-8.174 44.561-9.37 24.656-11.687 62.945-11.885 92.239l-38.232 36.486c-3.996 3.813-4.144 10.143-.331 14.138 3.758 3.938 10.203 4.087 14.138.331l41.313-39.427c1.978-1.887 3.096-4.501 3.096-7.234 0-39.69 3.763-71.449 10.595-89.428 6.254-16.456 9.443-33.825 9.479-51.625.014-5.523-4.455-10.01-9.978-10.021z"/><path d="m121.049 143.61c-7.638-5.09-17.794 2.453-15.114 11.22 1.271 4.156 5.208 7.1 9.564 7.1 4.237 0 8.098-2.79 9.461-6.788 1.446-4.241-.198-9.033-3.911-11.532z"/></g></g></svg>